<svg width="205" height="87" viewBox="0 0 205 87" fill="none" xmlns="http://www.w3.org/2000/svg">
<path d="M17.136 67.436V68.786H12.024V72.98H16.596V74.33H12.024V78.65H17.136V80H10.386V67.436H17.136ZM18.4445 70.136H20.2085L23.2865 78.488L26.3465 70.136H28.0925L24.2225 80H22.3145L18.4445 70.136ZM33.8984 71.36C32.2964 71.36 30.9644 72.422 30.7844 74.348H37.0124C37.0304 72.422 35.5904 71.36 33.8984 71.36ZM38.5064 76.958C38.0024 78.758 36.4184 80.162 33.9704 80.162C31.1624 80.162 29.0924 78.182 29.0924 75.05C29.0924 71.936 31.0904 69.974 33.9704 69.974C36.8324 69.974 38.7044 71.99 38.7044 74.69C38.7044 75.05 38.6864 75.338 38.6504 75.68H30.7664C30.8924 77.678 32.2964 78.776 33.9704 78.776C35.4464 78.776 36.3824 78.02 36.7424 76.958H38.5064ZM42.5045 74.636V80H40.8665V70.136H42.5045V71.738C43.0625 70.64 44.1245 69.956 45.6905 69.956V71.648H45.2585C43.6925 71.648 42.5045 72.35 42.5045 74.636ZM51.3253 78.128L54.3853 70.136H56.0773L50.1373 84.644H48.4453L50.3893 79.892L46.4113 70.136H48.2293L51.3253 78.128ZM59.3619 71.972C59.9919 70.874 61.3059 69.974 63.0519 69.974C65.7159 69.974 67.7319 71.954 67.7319 75.032C67.7319 78.092 65.6979 80.162 63.0519 80.162C61.2519 80.162 59.9739 79.262 59.3619 78.182V80H57.7239V66.68H59.3619V71.972ZM66.0579 75.032C66.0579 72.71 64.5279 71.396 62.7099 71.396C60.9279 71.396 59.3619 72.764 59.3619 75.05C59.3619 77.372 60.9279 78.722 62.7099 78.722C64.5279 78.722 66.0579 77.354 66.0579 75.032ZM79.248 75.05C79.248 78.182 76.998 80.162 74.19 80.162C71.4 80.162 69.276 78.182 69.276 75.05C69.276 71.936 71.472 69.974 74.262 69.974C77.07 69.974 79.248 71.936 79.248 75.05ZM70.95 75.05C70.95 77.552 72.48 78.722 74.19 78.722C75.9 78.722 77.574 77.552 77.574 75.05C77.574 72.566 75.936 71.396 74.244 71.396C72.516 71.396 70.95 72.566 70.95 75.05ZM80.7896 75.032C80.7896 71.954 82.8236 69.974 85.4876 69.974C87.0356 69.974 88.4576 70.766 89.1416 71.9V66.68H90.7976V80H89.1416V78.146C88.5476 79.244 87.2696 80.162 85.4696 80.162C82.8236 80.162 80.7896 78.092 80.7896 75.032ZM89.1416 75.05C89.1416 72.764 87.5936 71.396 85.7936 71.396C83.9936 71.396 82.4636 72.71 82.4636 75.032C82.4636 77.354 83.9936 78.722 85.7936 78.722C87.5936 78.722 89.1416 77.372 89.1416 75.05ZM97.3097 78.128L100.37 70.136H102.062L96.1217 84.644H94.4297L96.3737 79.892L92.3957 70.136H94.2137L97.3097 78.128ZM107.895 73.718C107.895 69.956 110.649 67.292 114.159 67.292C116.877 67.292 119.037 68.66 119.973 71.09H118.011C117.327 69.578 115.995 68.732 114.159 68.732C111.531 68.732 109.569 70.64 109.569 73.718C109.569 76.778 111.531 78.686 114.159 78.686C115.995 78.686 117.327 77.84 118.011 76.346H119.973C119.037 78.758 116.877 80.108 114.159 80.108C110.649 80.108 107.895 77.48 107.895 73.718ZM121.799 75.032C121.799 71.954 123.833 69.974 126.479 69.974C128.315 69.974 129.575 70.91 130.151 71.936V70.136H131.807V80H130.151V78.164C129.557 79.226 128.279 80.162 126.461 80.162C123.833 80.162 121.799 78.092 121.799 75.032ZM130.151 75.05C130.151 72.764 128.603 71.396 126.803 71.396C125.003 71.396 123.473 72.71 123.473 75.032C123.473 77.354 125.003 78.722 126.803 78.722C128.603 78.722 130.151 77.372 130.151 75.05ZM141.793 80V74.42C141.793 72.404 140.695 71.378 139.039 71.378C137.365 71.378 136.213 72.422 136.213 74.546V80H134.575V70.136H136.213V71.54C136.861 70.514 138.049 69.956 139.381 69.956C141.667 69.956 143.413 71.36 143.413 74.186V80H141.793ZM150.114 68.786V67.454H158.61V68.786H155.19V80H153.552V68.786H150.114ZM162.264 74.636V80H160.626V70.136H162.264V71.738C162.822 70.64 163.884 69.956 165.45 69.956V71.648H165.018C163.452 71.648 162.264 72.35 162.264 74.636ZM166.729 75.032C166.729 71.954 168.763 69.974 171.409 69.974C173.245 69.974 174.505 70.91 175.081 71.936V70.136H176.737V80H175.081V78.164C174.487 79.226 173.209 80.162 171.391 80.162C168.763 80.162 166.729 78.092 166.729 75.032ZM175.081 75.05C175.081 72.764 173.533 71.396 171.733 71.396C169.933 71.396 168.403 72.71 168.403 75.032C168.403 77.354 169.933 78.722 171.733 78.722C173.533 78.722 175.081 77.372 175.081 75.05ZM179.505 80V70.136H181.143V80H179.505ZM180.351 68.534C179.721 68.534 179.235 68.048 179.235 67.418C179.235 66.788 179.721 66.302 180.351 66.302C180.945 66.302 181.431 66.788 181.431 67.418C181.431 68.048 180.945 68.534 180.351 68.534ZM191.153 80V74.42C191.153 72.404 190.055 71.378 188.399 71.378C186.725 71.378 185.573 72.422 185.573 74.546V80H183.935V70.136H185.573V71.54C186.221 70.514 187.409 69.956 188.741 69.956C191.027 69.956 192.773 71.36 192.773 74.186V80H191.153Z" fill="#B6B4C2"/>
<path d="M12.159 14.728C14.823 14.728 17.151 15.256 19.143 16.312C21.135 17.368 22.671 18.856 23.751 20.776C24.855 22.672 25.407 24.868 25.407 27.364C25.407 29.836 24.855 32.032 23.751 33.952C22.671 35.872 21.123 37.36 19.107 38.416C17.115 39.472 14.799 40 12.159 40H2.69098V14.728H12.159ZM11.763 34.672C14.091 34.672 15.903 34.036 17.199 32.764C18.495 31.492 19.143 29.692 19.143 27.364C19.143 25.036 18.495 23.224 17.199 21.928C15.903 20.632 14.091 19.984 11.763 19.984H8.84698V34.672H11.763ZM35.0032 14.728V40H28.8472V14.728H35.0032ZM48.9324 14.728C51.5964 14.728 53.9244 15.256 55.9164 16.312C57.9084 17.368 59.4444 18.856 60.5244 20.776C61.6284 22.672 62.1804 24.868 62.1804 27.364C62.1804 29.836 61.6284 32.032 60.5244 33.952C59.4444 35.872 57.8964 37.36 55.8804 38.416C53.8884 39.472 51.5724 40 48.9324 40H39.4644V14.728H48.9324ZM48.5364 34.672C50.8644 34.672 52.6764 34.036 53.9724 32.764C55.2684 31.492 55.9164 29.692 55.9164 27.364C55.9164 25.036 55.2684 23.224 53.9724 21.928C52.6764 20.632 50.8644 19.984 48.5364 19.984H45.6204V34.672H48.5364ZM84.8807 22.864C84.8807 24.328 84.5447 25.672 83.8727 26.896C83.2007 28.096 82.1687 29.068 80.7767 29.812C79.3847 30.556 77.6567 30.928 75.5927 30.928H71.7767V40H65.6207V14.728H75.5927C77.6087 14.728 79.3127 15.076 80.7047 15.772C82.0967 16.468 83.1407 17.428 83.8367 18.652C84.5327 19.876 84.8807 21.28 84.8807 22.864ZM75.1247 26.032C76.3007 26.032 77.1767 25.756 77.7527 25.204C78.3287 24.652 78.6167 23.872 78.6167 22.864C78.6167 21.856 78.3287 21.076 77.7527 20.524C77.1767 19.972 76.3007 19.696 75.1247 19.696H71.7767V26.032H75.1247ZM100.038 40.252C97.6615 40.252 95.4775 39.7 93.4855 38.596C91.5175 37.492 89.9455 35.956 88.7695 33.988C87.6175 31.996 87.0415 29.764 87.0415 27.292C87.0415 24.82 87.6175 22.6 88.7695 20.632C89.9455 18.664 91.5175 17.128 93.4855 16.024C95.4775 14.92 97.6615 14.368 100.038 14.368C102.414 14.368 104.586 14.92 106.554 16.024C108.546 17.128 110.106 18.664 111.234 20.632C112.386 22.6 112.962 24.82 112.962 27.292C112.962 29.764 112.386 31.996 111.234 33.988C110.082 35.956 108.522 37.492 106.554 38.596C104.586 39.7 102.414 40.252 100.038 40.252ZM100.038 34.636C102.054 34.636 103.662 33.964 104.862 32.62C106.086 31.276 106.698 29.5 106.698 27.292C106.698 25.06 106.086 23.284 104.862 21.964C103.662 20.62 102.054 19.948 100.038 19.948C97.9975 19.948 96.3655 20.608 95.1415 21.928C93.9415 23.248 93.3415 25.036 93.3415 27.292C93.3415 29.524 93.9415 31.312 95.1415 32.656C96.3655 33.976 97.9975 34.636 100.038 34.636ZM128.338 40.252C125.962 40.252 123.778 39.7 121.786 38.596C119.818 37.492 118.246 35.956 117.07 33.988C115.918 31.996 115.342 29.764 115.342 27.292C115.342 24.82 115.918 22.6 117.07 20.632C118.246 18.664 119.818 17.128 121.786 16.024C123.778 14.92 125.962 14.368 128.338 14.368C130.714 14.368 132.886 14.92 134.854 16.024C136.846 17.128 138.406 18.664 139.534 20.632C140.686 22.6 141.262 24.82 141.262 27.292C141.262 29.764 140.686 31.996 139.534 33.988C138.382 35.956 136.822 37.492 134.854 38.596C132.886 39.7 130.714 40.252 128.338 40.252ZM128.338 34.636C130.354 34.636 131.962 33.964 133.162 32.62C134.386 31.276 134.998 29.5 134.998 27.292C134.998 25.06 134.386 23.284 133.162 21.964C131.962 20.62 130.354 19.948 128.338 19.948C126.298 19.948 124.666 20.608 123.442 21.928C122.242 23.248 121.642 25.036 121.642 27.292C121.642 29.524 122.242 31.312 123.442 32.656C124.666 33.976 126.298 34.636 128.338 34.636ZM150.843 35.248H158.907V40H144.687V14.728H150.843V35.248Z" fill="url(#paint0_linear_1804_3063)"/>
<path d="M178.295 14.728V19.66H167.999V24.988H175.703V29.776H167.999V40H161.843V14.728H178.295ZM184.627 17.824C183.547 17.824 182.659 17.512 181.963 16.888C181.291 16.24 180.955 15.448 180.955 14.512C180.955 13.552 181.291 12.76 181.963 12.136C182.659 11.488 183.547 11.164 184.627 11.164C185.683 11.164 186.547 11.488 187.219 12.136C187.915 12.76 188.263 13.552 188.263 14.512C188.263 15.448 187.915 16.24 187.219 16.888C186.547 17.512 185.683 17.824 184.627 17.824ZM187.687 19.912V40H181.531V19.912H187.687ZM203.344 34.78V40H200.212C197.98 40 196.24 39.46 194.992 38.38C193.744 37.276 193.12 35.488 193.12 33.016V25.024H190.672V19.912H193.12V15.016H199.276V19.912H203.308V25.024H199.276V33.088C199.276 33.688 199.42 34.12 199.708 34.384C199.996 34.648 200.476 34.78 201.148 34.78H203.344Z" fill="#1D1617"/>
<defs>
<linearGradient id="paint0_linear_1804_3063" x1="375.833" y1="104" x2="-85.2895" y2="-28.9971" gradientUnits="userSpaceOnUse">
<stop stop-color="#CC8FED"/>
<stop offset="1" stop-color="#6B50F6"/>
</linearGradient>
</defs>
</svg>
